<?xml version="1.0" encoding="utf-8"?>
<!-- Generator: Adobe Illustrator 16.0.0, SVG Export Plug-In . SVG Version: 6.00 Build 0)  -->
<!DOCTYPE svg PUBLIC "-//W3C//DTD SVG 1.1//EN" "http://www.w3.org/Graphics/SVG/1.1/DTD/svg11.dtd">
<svg version="1.1" id="Capa_1" xmlns="http://www.w3.org/2000/svg" xmlns:xlink="http://www.w3.org/1999/xlink" x="0px" y="0px"
	 width="1794.18px" height="1635.164px" viewBox="0 0 1794.18 1635.164" enable-background="new 0 0 1794.18 1635.164"
	 xml:space="preserve">
<g>
	<path fill-rule="evenodd" clip-rule="evenodd" fill="#E9E9E9" d="M263.656,178.689c-4.438,11.13-90.58,338.8-90.58,338.8
		l163.727,65.298l177.541,71.006l163.727,65.479c0,0,163.512-296.707,167.962-307.841c2.14-5.566-147.396-60.513-292.443-118.521
		C407.455,234.548,265.796,173.123,263.656,178.689 M765.372,419.39L765.372,419.39c-14.719-7.303-32.64-1.152-39.943,13.388
		L625.99,632.65c-7.315,14.546-1.337,32.637,13.393,39.939c14.55,7.313,32.627,1.162,39.944-13.387l99.437-199.87
		C785.884,444.612,779.92,426.698,765.372,419.39 M320.699,241.625L320.699,241.625c15.613,4.975,24.45,21.625,19.648,37.239
		l-65.69,213.388c-4.79,15.612-21.616,24.457-37.23,19.663c-15.612-4.793-24.451-21.625-19.66-37.239l65.702-213.214
		C288.246,245.675,305.085,236.831,320.699,241.625 M432.533,285.753L432.533,285.753c15.444,5.331,23.747,22.337,18.589,37.779
		L379.15,534.791c-5.338,15.614-22.349,23.917-37.782,18.578c-15.431-5.15-23.916-22.158-18.577-37.773l71.971-211.259
		C399.907,288.903,416.917,280.603,432.533,285.753 M540.965,328.814L540.965,328.814c15.08,6.05,22.664,23.416,16.618,38.677
		l-82.928,207.17c-6.046,15.254-23.414,22.665-38.678,16.609c-15.25-6.049-22.666-23.417-16.606-38.677l82.916-207.171
		C508.333,330.169,525.712,322.764,540.965,328.814 M658.193,375.97L658.193,375.97c-14.9-6.77-32.636-0.257-39.584,14.647
		l-93.507,202.533c-6.768,14.91-0.267,32.642,14.646,39.583c14.717,6.77,32.623,0.262,39.402-14.639l93.507-202.542
		C679.607,400.648,673.095,382.919,658.193,375.97"/>
	<polygon fill="#E9E9E9" points="815.865,397.361 947.299,339.226 954.82,335.798 962.715,338.998 1000.953,354.299 
		986.186,391.102 955.669,378.829 831.938,433.532 	"/>
	<path fill-rule="evenodd" clip-rule="evenodd" fill="#E9E9E9" d="M993.759,345.538l42.718,17.082
		c14.545,5.69,21.589,22.348,15.721,36.708c-5.693,14.544-22.171,21.581-36.716,15.711l-42.717-17.085L993.759,345.538z"/>
	<polygon fill="#E9E9E9" points="676.896,685.925 681.271,709.042 682.359,714.779 680.22,720.165 633.248,837.927 625.773,856.242 
		607.459,848.944 288.275,721.364 303.042,684.562 603.74,804.667 641.28,710.782 638.009,693.575 	"/>
	<path fill-rule="evenodd" clip-rule="evenodd" fill="#E9E9E9" d="M287.161,651.795c29.442,11.747,43.716,45.234,31.962,74.668
		c-11.73,29.442-45.223,43.891-74.665,31.968c-29.442-11.745-43.888-45.232-31.962-74.667
		C224.238,654.322,257.719,640.05,287.161,651.795"/>
	<path fill-rule="evenodd" clip-rule="evenodd" fill="#E9E9E9" d="M260.922,161.481l595.48,238.091
		c6.82,2.669,10.063,10.543,7.402,17.367c-2.674,6.82-10.558,10.253-17.38,7.401L250.958,186.439
		c-6.82-2.675-10.258-10.549-7.415-17.374C246.229,162.245,254.102,158.815,260.922,161.481"/>
</g>
<image overflow="visible" width="140" height="3" xlink:href="4DDA06BA.jpg"  transform="matrix(-4.7535 0 0 -2.8857 1768.1797 1385.8364)">
</image>
<path fill="#E1E1E1" d="M1524.917,571.7H516.719c-15.674,0-28.385,12.652-28.385,28.261v686.413
	c0,15.598,12.711,28.248,28.385,28.248h401.256l-14.209,112.594h-37.093c-21.276,0-38.533,17.172-38.533,38.354h385.371
	c0-21.182-17.257-38.354-38.542-38.354h-37.08l-14.218-112.594h401.246c15.69,0,28.409-12.65,28.409-28.248V599.96
	C1553.326,584.352,1540.607,571.7,1524.917,571.7"/>
<path fill="#263847" d="M1524.917,571.7H516.719c-15.674,0-28.385,12.652-28.385,28.261v588.924h1064.993V599.96
	C1553.326,584.352,1540.607,571.7,1524.917,571.7"/>
<rect x="269.563" y="571.703" fill="none" width="1364.385" height="893.866"/>
<rect x="546.14" y="629.232" fill="#F4FBFF" width="949.379" height="502.12"/>
<rect x="1186.276" y="643.614" fill="#D8DADD" width="294.778" height="117.481"/>
<rect x="560.593" y="643.614" fill="#D8DADD" width="920.461" height="117.481"/>
<rect x="560.593" y="775.476" fill="#D8DADD" width="611.233" height="73.529"/>
<rect x="869.819" y="1002.044" fill="#D8DADD" width="302.007" height="108.999"/>
<rect x="869.819" y="861.69" fill="#D8DADD" width="302.007" height="124.674"/>
<rect x="560.593" y="861.69" fill="#D8DADD" width="294.776" height="249.354"/>
<rect x="869.819" y="643.614" fill="#D8DADD" width="302.007" height="117.481"/>
<path fill="#263847" d="M769.257,1442.362c0,12.818-10.44,23.207-23.323,23.207H292.879c-12.878,0-23.316-10.389-23.316-23.207
	V878.574c0-12.822,10.438-23.212,23.316-23.212h453.054c12.883,0,23.323,10.39,23.323,23.212V1442.362z"/>
<rect x="322.552" y="922.826" fill="#F4FBFF" width="393.712" height="475.272"/>
<rect x="339.217" y="1248.067" fill="#D8DADD" width="360.382" height="27.448"/>
<rect x="339.217" y="1327.852" fill="#D8DADD" width="360.382" height="27.445"/>
<rect x="339.217" y="1287.958" fill="#D8DADD" width="360.382" height="27.449"/>
<rect x="339.217" y="1367.743" fill="#D8DADD" width="360.382" height="13.766"/>
<rect x="527.744" y="939.415" fill="#D8DADD" width="171.855" height="99.923"/>
<rect x="339.222" y="939.415" fill="#D8DADD" width="171.857" height="99.923"/>
<rect x="339.217" y="1208.178" fill="#D8DADD" width="360.382" height="27.449"/>
<rect x="339.217" y="1168.288" fill="#D8DADD" width="360.382" height="27.449"/>
<path fill="#5C6E7D" d="M1582.188,916.495l-39.041-16.754c-2.896-1.243-4.239-4.597-3.003-7.476c1.24-2.891,4.59-4.215,7.486-2.972
	l39.042,16.754c2.896,1.243,4.246,4.583,3.005,7.475C1588.441,916.4,1585.084,917.737,1582.188,916.495"/>
<g>
	<path fill="#263847" d="M1549.452,1497.715c-2.219,8.073-10.595,12.813-18.71,10.582l-205-56.335
		c-8.11-2.229-12.889-10.583-10.67-18.657l97.585-355.109c2.218-8.071,10.594-12.807,18.705-10.578l205.001,56.335
		c8.114,2.229,12.894,10.581,10.675,18.653L1549.452,1497.715z"/>
	
		<rect x="1373.3" y="1132.729" transform="matrix(0.9643 0.265 -0.265 0.9643 394.231 -346.4143)" fill="#F4FBFF" width="215.505" height="310.453"/>
	<path fill="#5C6E7D" d="M1547.475,1126.418l-40.966-11.257c-1.693-0.466-2.691-2.208-2.229-3.889
		c0.463-1.685,2.21-2.669,3.903-2.202l40.967,11.258c1.683,0.462,2.682,2.199,2.219,3.885
		C1550.907,1125.894,1549.158,1126.882,1547.475,1126.418"/>
	<path fill="#D5DADD" d="M1447.723,1260.75c-0.124,1.739-1.646,3.05-3.388,2.925c-1.75-0.125-3.07-1.639-2.946-3.377
		c0.125-1.744,1.646-3.049,3.396-2.924C1446.526,1257.498,1447.848,1259.006,1447.723,1260.75"/>
	<path fill="#5C6E7D" d="M1568.333,1126.252c-1.355-0.372-2.748,0.425-3.117,1.764c-0.37,1.347,0.423,2.738,1.776,3.111
		c1.348,0.369,2.749-0.42,3.119-1.766C1570.479,1128.022,1569.681,1126.624,1568.333,1126.252 M1566.657,1132.346
		c-2.027-0.557-3.223-2.65-2.668-4.668c0.552-2.01,2.647-3.197,4.676-2.64c2.031,0.558,3.217,2.647,2.665,4.657
		C1570.775,1131.713,1568.688,1132.905,1566.657,1132.346"/>
	
		<rect x="1374.185" y="1256.969" transform="matrix(-0.9643 -0.265 0.265 -0.9643 2532.2983 3013.8379)" fill="#D8DADD" width="190.499" height="158.289"/>
	
		<rect x="1417.27" y="1149.413" transform="matrix(-0.9643 -0.265 0.265 -0.9643 2660.0249 2705.7595)" fill="#D8DADD" width="190.498" height="48.09"/>
</g>
<g>
	<path fill-rule="evenodd" clip-rule="evenodd" fill="#FFFFFF" d="M675.597,861.986v39.36c0,26.498-22.947,48.453-50.826,48.453
		h-4.947c-28.087,0-50.825-21.955-50.825-48.453v-39.36H675.597z"/>
	<polygon fill-rule="evenodd" clip-rule="evenodd" fill="#05CDFF" points="614.541,627.004 472.333,865.529 1579.932,865.529 
		1437.726,627.004 	"/>
	<path fill-rule="evenodd" clip-rule="evenodd" fill="#FFFFFF" d="M574.59,865.532h92.159l95.933-238.528H691.08L574.59,865.532z
		 M769.014,865.532H875.82l36.784-238.528h-72.79L769.014,865.532z M975.696,865.532h96.719l-13.053-238.528h-75.155
		L975.696,865.532z M1173.677,865.532h99.876l-65.854-238.528h-74.362L1173.677,865.532z M1372.45,865.532h95.534l-109.972-238.528
		h-76.743L1372.45,865.532z"/>
	<path fill-rule="evenodd" clip-rule="evenodd" fill="#05CDFF" d="M573.999,865.532v39.36c0,26.498-21.763,48.453-48.459,48.453
		h-4.747c-26.704,0-48.459-21.955-48.459-48.453v-39.36H573.999z"/>
	<path fill-rule="evenodd" clip-rule="evenodd" fill="#05CDFF" d="M767.823,865.532v39.36c0,26.498-21.556,48.453-47.666,48.453
		h-4.746c-26.105,0-47.666-21.955-47.666-48.453v-39.36H767.823z"/>
	<path fill-rule="evenodd" clip-rule="evenodd" fill="#FFFFFF" d="M876.008,865.532v39.36c0,26.498-22.946,48.453-50.825,48.453
		h-4.947c-28.087,0-50.825-21.955-50.825-48.453v-39.36H876.008z"/>
	<path fill-rule="evenodd" clip-rule="evenodd" fill="#05CDFF" d="M975.898,865.532v39.36c0,26.498-21.373,48.453-47.276,48.453
		h-4.544c-25.916,0-47.277-21.955-47.277-48.453v-39.36H975.898z"/>
	<path fill-rule="evenodd" clip-rule="evenodd" fill="#FFFFFF" d="M1074.189,865.532v39.36c0,26.498-21.36,48.453-47.264,48.453
		h-4.557c-25.903,0-47.264-21.955-47.264-48.453v-39.36H1074.189z"/>
	<path fill-rule="evenodd" clip-rule="evenodd" fill="#05CDFF" d="M1174.47,865.532v39.36c0,26.498-21.563,48.453-48.057,48.453
		h-4.758c-26.496,0-48.259-21.955-48.259-48.453v-39.36H1174.47z"/>
	<path fill-rule="evenodd" clip-rule="evenodd" fill="#FFFFFF" d="M1274.938,865.532v39.36c0,26.498-21.36,48.453-47.264,48.453
		h-4.542c-25.918,0-47.278-21.955-47.278-48.453v-39.36H1274.938z"/>
	<path fill-rule="evenodd" clip-rule="evenodd" fill="#05CDFF" d="M1373.241,865.532v39.36c0,26.498-21.158,48.453-47.074,48.453
		h-4.744c-25.918,0-47.076-21.955-47.076-48.453v-39.36H1373.241z"/>
	<path fill-rule="evenodd" clip-rule="evenodd" fill="#FFFFFF" d="M1468.965,865.532v39.36c0,26.498-20.365,48.453-45.287,48.453
		h-4.355c-24.922,0-45.287-21.955-45.287-48.453v-39.36H1468.965z"/>
	<path fill-rule="evenodd" clip-rule="evenodd" fill="#05CDFF" d="M1580.121,865.532v39.36c0,26.498-23.727,48.453-52.6,48.453
		h-5.148c-29.077,0-52.802-21.955-52.802-48.453v-39.36H1580.121z"/>
</g>
<path fill-rule="evenodd" clip-rule="evenodd" fill="#F39242" d="M375.202,1486.507c0,4.495,18.94,8.093,42.379,8.093
	c23.377,0,42.383-3.598,42.383-8.093v-11.088h-84.762V1486.507z"/>
<path fill-rule="evenodd" clip-rule="evenodd" fill="#FAD377" d="M417.581,1467.265c-23.438,0-42.379,3.656-42.379,8.152
	c0,4.498,18.94,8.154,42.379,8.154c23.381,0,42.379-3.656,42.379-8.154C459.96,1470.921,440.962,1467.265,417.581,1467.265"/>
<path fill-rule="evenodd" clip-rule="evenodd" fill="#F39242" d="M375.202,1470.863c0,4.495,18.94,8.152,42.379,8.152
	c23.377,0,42.383-3.657,42.383-8.152v-11.031h-84.762V1470.863z"/>
<path fill-rule="evenodd" clip-rule="evenodd" fill="#FAD377" d="M417.581,1451.679c-23.438,0-42.379,3.657-42.379,8.152
	c0,4.498,18.94,8.094,42.379,8.094c23.381,0,42.379-3.596,42.379-8.094C459.96,1455.336,440.962,1451.679,417.581,1451.679"/>
<path fill-rule="evenodd" clip-rule="evenodd" fill="#F39242" d="M375.202,1455.277c0,4.496,18.94,8.094,42.379,8.094
	c23.377,0,42.383-3.598,42.383-8.094v-11.09h-84.762V1455.277z"/>
<path fill-rule="evenodd" clip-rule="evenodd" fill="#FAD377" d="M417.581,1436.035c-23.438,0-42.379,3.657-42.379,8.152
	c0,4.496,18.94,8.152,42.379,8.152c23.381,0,42.379-3.656,42.379-8.152C459.96,1439.692,440.962,1436.035,417.581,1436.035"/>
<path fill-rule="evenodd" clip-rule="evenodd" fill="#F39242" d="M375.202,1439.63c0,4.496,18.94,8.152,42.379,8.152
	c23.377,0,42.383-3.656,42.383-8.152v-11.028h-84.762V1439.63z"/>
<path fill-rule="evenodd" clip-rule="evenodd" fill="#FAD377" d="M417.581,1420.45c-23.438,0-42.379,3.656-42.379,8.152
	s18.94,8.093,42.379,8.093c23.381,0,42.379-3.597,42.379-8.093S440.962,1420.45,417.581,1420.45"/>
<path fill-rule="evenodd" clip-rule="evenodd" fill="#F39242" d="M375.202,1423.986c0,4.496,18.94,8.152,42.379,8.152
	c23.377,0,42.383-3.656,42.383-8.152v-11.03h-84.762V1423.986z"/>
<path fill-rule="evenodd" clip-rule="evenodd" fill="#FAD377" d="M417.581,1404.803c-23.438,0-42.379,3.656-42.379,8.152
	c0,4.498,18.94,8.154,42.379,8.154c23.381,0,42.379-3.656,42.379-8.154C459.96,1408.459,440.962,1404.803,417.581,1404.803"/>
<path fill-rule="evenodd" clip-rule="evenodd" fill="#F39242" d="M375.202,1408.401c0,4.495,18.94,8.152,42.379,8.152
	c23.377,0,42.383-3.657,42.383-8.152v-11.09h-84.762V1408.401z"/>
<path fill-rule="evenodd" clip-rule="evenodd" fill="#FAD377" d="M417.581,1389.217c-23.438,0-42.379,3.598-42.379,8.094
	c0,4.495,18.94,8.152,42.379,8.152c23.381,0,42.379-3.657,42.379-8.152C459.96,1392.815,440.962,1389.217,417.581,1389.217"/>
<path fill-rule="evenodd" clip-rule="evenodd" fill="#F39242" d="M375.202,1392.754c0,4.495,18.94,8.151,42.379,8.151
	c23.377,0,42.383-3.656,42.383-8.151v-11.029h-84.762V1392.754z"/>
<path fill-rule="evenodd" clip-rule="evenodd" fill="#FAD377" d="M417.581,1373.573c-23.438,0-42.379,3.657-42.379,8.152
	c0,4.496,18.94,8.152,42.379,8.152c23.381,0,42.379-3.656,42.379-8.152C459.96,1377.23,440.962,1373.573,417.581,1373.573"/>
<path fill-rule="evenodd" clip-rule="evenodd" fill="#F39242" d="M375.202,1377.168c0,4.496,18.94,8.152,42.379,8.152
	c23.377,0,42.383-3.656,42.383-8.152v-11.088h-84.762V1377.168z"/>
<path fill-rule="evenodd" clip-rule="evenodd" fill="#FAD377" d="M417.581,1357.988c-23.438,0-42.379,3.596-42.379,8.093
	c0,4.496,18.94,8.152,42.379,8.152c23.381,0,42.379-3.656,42.379-8.152C459.96,1361.583,440.962,1357.988,417.581,1357.988"/>
<path fill-rule="evenodd" clip-rule="evenodd" fill="#F39242" d="M375.202,1361.524c0,4.496,18.94,8.152,42.379,8.152
	c23.377,0,42.383-3.656,42.383-8.152v-11.03h-84.762V1361.524z"/>
<path fill-rule="evenodd" clip-rule="evenodd" fill="#FAD377" d="M417.581,1342.341c-23.438,0-42.379,3.656-42.379,8.152
	c0,4.498,18.94,8.154,42.379,8.154c23.381,0,42.379-3.656,42.379-8.154C459.96,1345.998,440.962,1342.341,417.581,1342.341"/>
<path fill-rule="evenodd" clip-rule="evenodd" fill="#F39242" d="M375.202,1345.939c0,4.495,18.94,8.093,42.379,8.093
	c23.377,0,42.383-3.598,42.383-8.093v-11.09h-84.762V1345.939z"/>
<path fill-rule="evenodd" clip-rule="evenodd" fill="#FAD377" d="M417.581,1326.697c-23.438,0-42.379,3.656-42.379,8.152
	c0,4.495,18.94,8.154,42.379,8.154c23.381,0,42.379-3.659,42.379-8.154C459.96,1330.353,440.962,1326.697,417.581,1326.697"/>
<path fill-rule="evenodd" clip-rule="evenodd" fill="#F39242" d="M375.202,1330.294c0,4.493,18.94,8.149,42.379,8.149
	c23.377,0,42.383-3.656,42.383-8.149v-11.031h-84.762V1330.294z"/>
<path fill-rule="evenodd" clip-rule="evenodd" fill="#FAD377" d="M417.581,1311.111c-23.438,0-42.379,3.657-42.379,8.152
	c0,4.496,18.94,8.094,42.379,8.094c23.381,0,42.379-3.598,42.379-8.094C459.96,1314.768,440.962,1311.111,417.581,1311.111"/>
<path fill-rule="evenodd" clip-rule="evenodd" fill="#F28740" d="M375.202,1486.507c0,3.477,11.387,6.414,27.395,7.614v-18.702
	h-27.395V1486.507z"/>
<path fill-rule="evenodd" clip-rule="evenodd" fill="#F8C16F" d="M402.597,1467.805c-16.007,1.199-27.395,4.137-27.395,7.614
	c0,3.476,11.387,6.472,27.395,7.61V1467.805z"/>
<path fill-rule="evenodd" clip-rule="evenodd" fill="#F28740" d="M375.202,1470.863c0,3.477,11.387,6.474,27.395,7.612v-18.644
	h-27.395V1470.863z"/>
<path fill-rule="evenodd" clip-rule="evenodd" fill="#F8C16F" d="M402.597,1452.219c-16.007,1.139-27.395,4.138-27.395,7.614
	c0,3.476,11.387,6.413,27.395,7.611V1452.219z"/>
<path fill-rule="evenodd" clip-rule="evenodd" fill="#F28740" d="M375.202,1455.277c0,3.478,11.387,6.415,27.395,7.612v-18.702
	h-27.395V1455.277z"/>
<path fill-rule="evenodd" clip-rule="evenodd" fill="#F8C16F" d="M402.597,1436.575c-16.007,1.139-27.395,4.136-27.395,7.612
	c0,3.476,11.387,6.475,27.395,7.613V1436.575z"/>
<path fill-rule="evenodd" clip-rule="evenodd" fill="#F28740" d="M375.202,1439.63c0,3.478,11.387,6.476,27.395,7.614v-18.643
	h-27.395V1439.63z"/>
<path fill-rule="evenodd" clip-rule="evenodd" fill="#F8C16F" d="M402.597,1420.99c-16.007,1.139-27.395,4.074-27.395,7.612
	c0,3.476,11.387,6.415,27.395,7.612V1420.99z"/>
<path fill-rule="evenodd" clip-rule="evenodd" fill="#F28740" d="M375.202,1423.986c0,3.538,11.387,6.474,27.395,7.614v-18.645
	h-27.395V1423.986z"/>
<path fill-rule="evenodd" clip-rule="evenodd" fill="#F8C16F" d="M402.597,1405.343c-16.007,1.139-27.395,4.137-27.395,7.614
	c0,3.476,11.387,6.472,27.395,7.61V1405.343z"/>
<path fill-rule="evenodd" clip-rule="evenodd" fill="#F28740" d="M375.202,1408.401c0,3.477,11.387,6.474,27.395,7.612v-18.702
	h-27.395V1408.401z"/>
<path fill-rule="evenodd" clip-rule="evenodd" fill="#F8C16F" d="M402.597,1389.699c-16.007,1.197-27.395,4.135-27.395,7.612
	c0,3.536,11.387,6.474,27.395,7.612V1389.699z"/>
<path fill-rule="evenodd" clip-rule="evenodd" fill="#F28740" d="M375.202,1392.754c0,3.477,11.387,6.476,27.395,7.614v-11.031
	c-16.007-1.139-27.395-4.135-27.395-7.612V1392.754z"/>
<path fill-rule="evenodd" clip-rule="evenodd" fill="#F28740" d="M375.202,1377.168c0,3.478,11.387,6.415,27.395,7.614v-11.092
	c-16.007-1.139-27.395-4.135-27.395-7.61V1377.168z"/>
<path fill-rule="evenodd" clip-rule="evenodd" fill="#F28740" d="M375.202,1361.524c0,3.478,11.387,6.474,27.395,7.614v-11.03
	c-16.007-1.2-27.395-4.138-27.395-7.614V1361.524z"/>
<path fill-rule="evenodd" clip-rule="evenodd" fill="#F28740" d="M375.202,1345.939c0,3.477,11.387,6.414,27.395,7.614v-11.092
	c-16.007-1.139-27.395-4.138-27.395-7.612V1345.939z"/>
<path fill-rule="evenodd" clip-rule="evenodd" fill="#F28740" d="M375.202,1330.294c0,3.477,11.387,6.474,27.395,7.612v-11.031
	c-16.007-1.199-27.395-4.135-27.395-7.612V1330.294z"/>
<path fill="#FDFDFD" d="M422.018,1314.768c0.18-0.42,0.302-0.84,0.481-1.2c-1.202,0.061-2.4,0.061-3.598,0.122
	c-0.183,0.358-0.362,0.778-0.542,1.139c-2.098,0.118-3.895,0.42-5.455,0.778c-1.496,0.36-2.754,0.839-3.716,1.499
	c0.961,0.06,1.98,0.18,2.938,0.24c0.958,0.118,1.98,0.18,2.938,0.298c0.9-0.599,2.277-0.898,4.196-0.957
	c1.556-0.062,2.338,0.117,2.216,0.479c-0.057,0.12-0.241,0.238-0.538,0.36c-0.301,0.118-1.137,0.238-2.399,0.358
	c-2.938,0.24-5.036,0.479-6.413,0.658c-1.32,0.181-2.457,0.48-3.475,0.902c-1.019,0.42-1.679,0.898-1.919,1.497
	c-0.302,0.78,0.301,1.44,1.796,1.978c0.782,0.241,1.679,0.479,2.819,0.602c1.141,0.179,2.396,0.297,3.895,0.358
	c-0.118,0.42-0.241,0.837-0.297,1.2h4.013c0.061-0.42,0.184-0.78,0.241-1.2c2.518-0.12,4.555-0.42,6.233-0.96
	c1.561-0.48,2.758-1.139,3.541-1.978c-1.141-0.062-2.277-0.12-3.418-0.12c-1.137-0.059-2.277-0.12-3.475-0.18
	c-0.782,0.72-2.4,1.08-4.856,1.139c-1.919,0-2.819-0.179-2.697-0.539c0.061-0.182,0.297-0.361,0.778-0.42
	c0.477-0.12,1.32-0.238,2.457-0.358c2.277-0.182,4.139-0.36,5.573-0.599c1.442-0.241,2.461-0.481,3.121-0.722
	c1.259-0.54,1.915-1.139,2.094-1.797c0.184-0.721-0.236-1.321-1.316-1.798c-0.48-0.241-1.202-0.422-2.037-0.54
	C424.295,1314.829,423.216,1314.768,422.018,1314.768"/>
<path fill-rule="evenodd" clip-rule="evenodd" fill="#F39242" d="M145.436,1559.759c0,4.496,18.94,8.152,42.379,8.152
	c23.381,0,42.383-3.656,42.383-8.152v-11.03h-84.762V1559.759z"/>
<path fill-rule="evenodd" clip-rule="evenodd" fill="#FAD377" d="M187.814,1540.577c-23.437,0-42.379,3.656-42.379,8.152
	c0,4.497,18.942,8.154,42.379,8.154c23.381,0,42.381-3.657,42.381-8.154C230.195,1544.233,211.195,1540.577,187.814,1540.577"/>
<path fill-rule="evenodd" clip-rule="evenodd" fill="#F28740" d="M145.436,1559.759c0,3.536,11.627,6.533,27.993,7.672v-11.029
	c-16.366-1.139-27.993-4.135-27.993-7.673V1559.759z"/>
<path fill="#FDFDFD" d="M191.893,1544.054c0.179-0.42,0.358-0.781,0.54-1.2c-1.2,0.061-2.399,0.122-3.656,0.122
	c-0.184,0.42-0.302,0.778-0.481,1.139c-2.098,0.18-3.956,0.42-5.455,0.778c-1.561,0.36-2.817,0.898-3.777,1.499
	c1.019,0.06,1.98,0.18,2.999,0.298c0.958,0.061,1.919,0.183,2.938,0.24c0.839-0.599,2.277-0.898,4.135-0.958
	c1.618,0,2.338,0.121,2.216,0.538c-0.057,0.122-0.24,0.24-0.538,0.362c-0.302,0.058-1.08,0.18-2.339,0.298
	c-2.937,0.3-5.097,0.48-6.413,0.66c-1.32,0.238-2.518,0.54-3.536,0.959c-1.021,0.36-1.62,0.898-1.858,1.438
	c-0.362,0.78,0.238,1.44,1.736,1.978c0.782,0.241,1.739,0.479,2.876,0.66c1.082,0.12,2.4,0.238,3.838,0.3
	c-0.059,0.42-0.179,0.839-0.299,1.259h4.076c0.061-0.42,0.122-0.839,0.24-1.259c2.518-0.118,4.555-0.42,6.174-0.898
	c1.62-0.48,2.817-1.139,3.539-1.979c-1.141-0.061-2.282-0.119-3.418-0.181c-1.141-0.06-2.279-0.12-3.418-0.18
	c-0.778,0.72-2.396,1.139-4.854,1.139c-1.919,0.062-2.878-0.12-2.756-0.48c0.059-0.238,0.358-0.358,0.837-0.479
	c0.479-0.12,1.318-0.238,2.459-0.3c2.218-0.179,4.076-0.417,5.512-0.658c1.442-0.24,2.458-0.48,3.121-0.719
	c1.257-0.542,1.976-1.141,2.155-1.741c0.179-0.718-0.24-1.318-1.316-1.856c-0.542-0.24-1.202-0.421-2.1-0.539
	C194.231,1544.173,193.149,1544.054,191.893,1544.054"/>
<path fill-rule="evenodd" clip-rule="evenodd" fill="#F39242" d="M256.092,1497.896c0,4.496,18.94,8.152,42.378,8.152
	c23.381,0,42.383-3.656,42.383-8.152v-11.03h-84.761V1497.896z"/>
<path fill-rule="evenodd" clip-rule="evenodd" fill="#FAD377" d="M298.471,1478.715c-23.434,0-42.378,3.656-42.378,8.15
	c0,4.498,18.944,8.095,42.378,8.095c23.381,0,42.383-3.597,42.383-8.095C340.854,1482.372,321.852,1478.715,298.471,1478.715"/>
<path fill-rule="evenodd" clip-rule="evenodd" fill="#F39242" d="M256.092,1482.251c0,4.496,18.94,8.152,42.378,8.152
	c23.381,0,42.383-3.656,42.383-8.152v-11.03h-84.761V1482.251z"/>
<path fill-rule="evenodd" clip-rule="evenodd" fill="#FAD377" d="M298.471,1463.069c-23.434,0-42.378,3.656-42.378,8.152
	c0,4.498,18.944,8.154,42.378,8.154c23.381,0,42.383-3.656,42.383-8.154C340.854,1466.725,321.852,1463.069,298.471,1463.069"/>
<path fill-rule="evenodd" clip-rule="evenodd" fill="#F39242" d="M256.092,1466.667c0,4.495,18.94,8.152,42.378,8.152
	c23.381,0,42.383-3.657,42.383-8.152v-11.09h-84.761V1466.667z"/>
<path fill-rule="evenodd" clip-rule="evenodd" fill="#FAD377" d="M298.471,1447.483c-23.434,0-42.378,3.598-42.378,8.094
	s18.944,8.152,42.378,8.152c23.381,0,42.383-3.656,42.383-8.152S321.852,1447.483,298.471,1447.483"/>
<path fill-rule="evenodd" clip-rule="evenodd" fill="#F39242" d="M256.092,1451.02c0,4.495,18.94,8.152,42.378,8.152
	c23.381,0,42.383-3.657,42.383-8.152v-11.029h-84.761V1451.02z"/>
<path fill-rule="evenodd" clip-rule="evenodd" fill="#FAD377" d="M298.471,1431.838c-23.434,0-42.378,3.657-42.378,8.152
	c0,4.496,18.944,8.152,42.378,8.152c23.381,0,42.383-3.656,42.383-8.152C340.854,1435.496,321.852,1431.838,298.471,1431.838"/>
<path fill-rule="evenodd" clip-rule="evenodd" fill="#F39242" d="M256.092,1435.434c0,4.496,18.94,8.152,42.378,8.152
	c23.381,0,42.383-3.656,42.383-8.152v-11.088h-84.761V1435.434z"/>
<path fill-rule="evenodd" clip-rule="evenodd" fill="#FAD377" d="M298.471,1416.253c-23.434,0-42.378,3.596-42.378,8.093
	c0,4.496,18.944,8.152,42.378,8.152c23.381,0,42.383-3.656,42.383-8.152C340.854,1419.849,321.852,1416.253,298.471,1416.253"/>
<path fill-rule="evenodd" clip-rule="evenodd" fill="#F39242" d="M256.092,1419.79c0,4.496,18.94,8.152,42.378,8.152
	c23.381,0,42.383-3.656,42.383-8.152v-11.03h-84.761V1419.79z"/>
<path fill-rule="evenodd" clip-rule="evenodd" fill="#FAD377" d="M298.471,1400.607c-23.434,0-42.378,3.656-42.378,8.152
	c0,4.498,18.944,8.154,42.378,8.154c23.381,0,42.383-3.656,42.383-8.154C340.854,1404.263,321.852,1400.607,298.471,1400.607"/>
<path fill-rule="evenodd" clip-rule="evenodd" fill="#F39242" d="M256.092,1404.205c0,4.495,18.94,8.093,42.378,8.093
	c23.381,0,42.383-3.598,42.383-8.093v-11.09h-84.761V1404.205z"/>
<path fill-rule="evenodd" clip-rule="evenodd" fill="#FAD377" d="M298.471,1384.962c-23.434,0-42.378,3.656-42.378,8.152
	c0,4.495,18.944,8.154,42.378,8.154c23.381,0,42.383-3.659,42.383-8.154C340.854,1388.619,321.852,1384.962,298.471,1384.962"/>
<path fill-rule="evenodd" clip-rule="evenodd" fill="#F39242" d="M256.092,1388.56c0,4.493,18.94,8.149,42.378,8.149
	c23.381,0,42.383-3.656,42.383-8.149v-11.031h-84.761V1388.56z"/>
<path fill-rule="evenodd" clip-rule="evenodd" fill="#FAD377" d="M298.471,1369.376c-23.434,0-42.378,3.657-42.378,8.152
	c0,4.498,18.944,8.094,42.378,8.094c23.381,0,42.383-3.596,42.383-8.094C340.854,1373.034,321.852,1369.376,298.471,1369.376"/>
<path fill-rule="evenodd" clip-rule="evenodd" fill="#F39242" d="M256.092,1372.974c0,4.494,18.94,8.094,42.378,8.094
	c23.381,0,42.383-3.6,42.383-8.094v-11.09h-84.761V1372.974z"/>
<path fill-rule="evenodd" clip-rule="evenodd" fill="#FAD377" d="M298.471,1353.73c-23.434,0-42.378,3.659-42.378,8.152
	c0,4.498,18.944,8.154,42.378,8.154c23.381,0,42.383-3.656,42.383-8.154C340.854,1357.389,321.852,1353.73,298.471,1353.73"/>
<path fill-rule="evenodd" clip-rule="evenodd" fill="#F39242" d="M256.092,1357.328c0,4.496,18.94,8.152,42.378,8.152
	c23.381,0,42.383-3.656,42.383-8.152v-11.03h-84.761V1357.328z"/>
<path fill-rule="evenodd" clip-rule="evenodd" fill="#FAD377" d="M298.471,1338.145c-23.434,0-42.378,3.658-42.378,8.152
	c0,4.497,18.944,8.093,42.378,8.093c23.381,0,42.383-3.596,42.383-8.093C340.854,1341.803,321.852,1338.145,298.471,1338.145"/>
<path fill-rule="evenodd" clip-rule="evenodd" fill="#F39242" d="M256.092,1341.683c0,4.494,18.94,8.15,42.378,8.15
	c23.381,0,42.383-3.656,42.383-8.15v-11.03h-84.761V1341.683z"/>
<path fill-rule="evenodd" clip-rule="evenodd" fill="#FAD377" d="M298.471,1322.5c-23.434,0-42.378,3.656-42.378,8.152
	c0,4.497,18.944,8.154,42.378,8.154c23.381,0,42.383-3.657,42.383-8.154C340.854,1326.157,321.852,1322.5,298.471,1322.5"/>
<path fill-rule="evenodd" clip-rule="evenodd" fill="#F28740" d="M256.092,1497.896c0,3.239,9.708,5.995,23.796,7.315v-18.346
	h-23.796V1497.896z"/>
<path fill-rule="evenodd" clip-rule="evenodd" fill="#F8C16F" d="M279.889,1479.494c-14.084,1.317-23.796,4.137-23.796,7.374
	c0,3.178,9.712,5.993,23.796,7.313V1479.494z"/>
<path fill-rule="evenodd" clip-rule="evenodd" fill="#F28740" d="M256.092,1482.251c0,3.237,9.708,5.995,23.796,7.313v-18.344
	h-23.796V1482.251z"/>
<path fill-rule="evenodd" clip-rule="evenodd" fill="#F8C16F" d="M279.889,1463.908c-14.084,1.318-23.796,4.076-23.796,7.313
	c0,3.239,9.712,5.995,23.796,7.314V1463.908z"/>
<path fill-rule="evenodd" clip-rule="evenodd" fill="#F28740" d="M256.092,1466.667c0,3.236,9.708,5.995,23.796,7.313v-18.402
	h-23.796V1466.667z"/>
<path fill-rule="evenodd" clip-rule="evenodd" fill="#F8C16F" d="M279.889,1448.263c-14.084,1.318-23.796,4.136-23.796,7.313
	c0,3.236,9.712,5.995,23.796,7.313V1448.263z"/>
<path fill-rule="evenodd" clip-rule="evenodd" fill="#F28740" d="M256.092,1451.02c0,3.238,9.708,5.995,23.796,7.314v-18.344
	h-23.796V1451.02z"/>
<path fill-rule="evenodd" clip-rule="evenodd" fill="#F8C16F" d="M279.889,1432.678c-14.084,1.317-23.796,4.076-23.796,7.313
	c0,3.237,9.712,5.995,23.796,7.313V1432.678z"/>
<path fill-rule="evenodd" clip-rule="evenodd" fill="#F28740" d="M256.092,1435.434c0,3.178,9.708,5.995,23.796,7.315v-11.09
	c-14.088-1.32-23.796-4.078-23.796-7.313V1435.434z"/>
<path fill-rule="evenodd" clip-rule="evenodd" fill="#F28740" d="M256.092,1419.79c0,3.237,9.708,5.995,23.796,7.313v-11.031
	c-14.088-1.317-23.796-4.135-23.796-7.313V1419.79z"/>
<path fill-rule="evenodd" clip-rule="evenodd" fill="#F28740" d="M256.092,1404.205c0,3.178,9.708,5.995,23.796,7.313v-11.088
	c-14.088-1.321-23.796-4.078-23.796-7.314V1404.205z"/>
<path fill-rule="evenodd" clip-rule="evenodd" fill="#F28740" d="M256.092,1388.56c0,3.236,9.708,5.995,23.796,7.313v-11.03
	c-14.088-1.318-23.796-4.138-23.796-7.313V1388.56z"/>
<path fill-rule="evenodd" clip-rule="evenodd" fill="#F28740" d="M256.092,1372.974c0,3.176,9.708,5.995,23.796,7.313v-11.09
	c-14.088-1.32-23.796-4.078-23.796-7.313V1372.974z"/>
<path fill-rule="evenodd" clip-rule="evenodd" fill="#F28740" d="M256.092,1357.328c0,3.237,9.708,5.995,23.796,7.313v-11.031
	c-14.088-1.317-23.796-4.135-23.796-7.313V1357.328z"/>
<path fill-rule="evenodd" clip-rule="evenodd" fill="#F28740" d="M256.092,1341.683c0,3.237,9.708,5.995,23.796,7.372v-11.09
	c-14.088-1.317-23.796-4.076-23.796-7.313V1341.683z"/>
<path fill-rule="evenodd" clip-rule="evenodd" fill="#F8C16F" d="M294.274,1479.734c-12.825,1.44-21.458,4.076-21.458,7.134
	c0,2.998,8.633,5.635,21.458,7.072V1479.734z"/>
<path fill="#FDFDFD" d="M304.105,1326.157c0.179-0.42,0.358-0.78,0.542-1.2c-1.198,0.062-2.46,0.123-3.658,0.123
	c-0.179,0.419-0.359,0.777-0.477,1.139c-2.098,0.179-3.96,0.419-5.455,0.777c-1.561,0.361-2.819,0.898-3.776,1.5
	c1.019,0.059,1.98,0.179,2.937,0.297c1.019,0.062,1.976,0.184,2.995,0.24c0.843-0.599,2.277-0.898,4.139-0.957
	c1.618,0,2.339,0.12,2.216,0.538c-0.061,0.122-0.24,0.24-0.538,0.301c-0.301,0.118-1.08,0.241-2.338,0.358
	c-2.938,0.3-5.097,0.479-6.417,0.66c-1.316,0.238-2.518,0.54-3.532,0.96c-1.022,0.36-1.683,0.839-1.862,1.438
	c-0.358,0.779,0.24,1.439,1.74,1.978c0.778,0.24,1.735,0.479,2.819,0.658c1.137,0.122,2.457,0.24,3.895,0.301
	c-0.122,0.42-0.183,0.84-0.301,1.26h4.078c0.061-0.42,0.118-0.84,0.24-1.26c2.518-0.118,4.555-0.419,6.172-0.897
	c1.617-0.481,2.819-1.139,3.536-1.979c-1.137-0.061-2.277-0.122-3.418-0.182c-1.137-0.059-2.277-0.12-3.414-0.179
	c-0.778,0.719-2.399,1.139-4.856,1.139c-1.98,0.062-2.876-0.12-2.758-0.538c0.061-0.181,0.358-0.301,0.839-0.422
	c0.481-0.12,1.259-0.238,2.457-0.299c2.22-0.18,4.078-0.418,5.516-0.658s2.457-0.48,3.117-0.721c1.259-0.54,1.98-1.139,2.159-1.74
	c0.179-0.717-0.24-1.317-1.32-1.855c-0.538-0.24-1.198-0.422-2.098-0.54C306.387,1326.275,305.364,1326.157,304.105,1326.157"/>
<path fill-rule="evenodd" clip-rule="evenodd" fill="#F39242" d="M208.438,1468.524c0,4.496,18.94,8.152,42.379,8.152
	c23.381,0,42.383-3.656,42.383-8.152v-11.088h-84.762V1468.524z"/>
<path fill-rule="evenodd" clip-rule="evenodd" fill="#FAD377" d="M250.816,1449.343c-23.438,0-42.379,3.596-42.379,8.093
	c0,4.494,18.94,8.15,42.379,8.15c23.381,0,42.378-3.656,42.378-8.15C293.195,1452.939,274.197,1449.343,250.816,1449.343"/>
<path fill-rule="evenodd" clip-rule="evenodd" fill="#F39242" d="M208.438,1452.879c0,4.494,18.94,8.152,42.379,8.152
	c23.381,0,42.383-3.658,42.383-8.152v-11.03h-84.762V1452.879z"/>
<path fill-rule="evenodd" clip-rule="evenodd" fill="#FAD377" d="M250.816,1433.697c-23.438,0-42.379,3.656-42.379,8.152
	c0,4.498,18.94,8.154,42.379,8.154c23.381,0,42.378-3.656,42.378-8.154C293.195,1437.353,274.197,1433.697,250.816,1433.697"/>
<path fill-rule="evenodd" clip-rule="evenodd" fill="#F39242" d="M208.438,1437.294c0,4.493,18.94,8.093,42.379,8.093
	c23.381,0,42.383-3.6,42.383-8.093v-11.09h-84.762V1437.294z"/>
<path fill-rule="evenodd" clip-rule="evenodd" fill="#FAD377" d="M250.816,1418.052c-23.438,0-42.379,3.656-42.379,8.15
	c0,4.497,18.94,8.154,42.379,8.154c23.381,0,42.378-3.657,42.378-8.154C293.195,1421.708,274.197,1418.052,250.816,1418.052"/>
<path fill-rule="evenodd" clip-rule="evenodd" fill="#F39242" d="M208.438,1421.648c0,4.495,18.94,8.151,42.379,8.151
	c23.381,0,42.383-3.656,42.383-8.151v-11.031h-84.762V1421.648z"/>
<path fill-rule="evenodd" clip-rule="evenodd" fill="#FAD377" d="M250.816,1402.466c-23.438,0-42.379,3.657-42.379,8.15
	c0,4.498,18.94,8.096,42.379,8.096c23.381,0,42.378-3.598,42.378-8.096C293.195,1406.124,274.197,1402.466,250.816,1402.466"/>
<path fill-rule="evenodd" clip-rule="evenodd" fill="#F39242" d="M208.438,1468.524c0,4.138,16.064,7.554,36.923,8.034v-19.122
	h-36.923V1468.524z"/>
<path fill-rule="evenodd" clip-rule="evenodd" fill="#FAD377" d="M245.361,1449.402c-20.859,0.479-36.923,3.897-36.923,8.032
	c0,4.138,16.064,7.554,36.923,8.092V1449.402z"/>
<path fill-rule="evenodd" clip-rule="evenodd" fill="#F39242" d="M208.438,1452.879c0,4.136,16.064,7.554,36.923,8.093v-19.123
	h-36.923V1452.879z"/>
<path fill-rule="evenodd" clip-rule="evenodd" fill="#FAD377" d="M245.361,1433.757c-20.859,0.54-36.923,3.956-36.923,8.094
	c0,4.133,16.064,7.551,36.923,8.03V1433.757z"/>
<path fill-rule="evenodd" clip-rule="evenodd" fill="#F17E3E" d="M208.438,1437.294c0,4.135,16.064,7.553,36.923,8.031v-11.03
	c-20.859-0.538-36.923-3.956-36.923-8.091V1437.294z"/>
<path fill-rule="evenodd" clip-rule="evenodd" fill="#F17E3E" d="M208.438,1421.648c0,4.137,16.064,7.553,36.923,8.093v-11.09
	c-20.859-0.48-36.923-3.896-36.923-8.034V1421.648z"/>
<path fill="#FDFDFD" d="M253.694,1404.985c0.179-0.42,0.3-0.78,0.479-1.2c-1.198,0.059-2.398,0.12-3.596,0.12
	c-0.181,0.42-0.36,0.778-0.54,1.139c-2.098,0.18-3.897,0.42-5.455,0.778c-1.5,0.36-2.758,0.9-3.716,1.499
	c0.958,0.06,1.978,0.182,2.936,0.3c0.959,0.061,1.98,0.181,2.938,0.24c0.9-0.599,2.277-0.9,4.196-0.957
	c1.558,0,2.338,0.117,2.159,0.537c0,0.12-0.182,0.24-0.479,0.3c-0.301,0.12-1.141,0.24-2.399,0.358
	c-2.938,0.302-5.036,0.48-6.415,0.66c-1.318,0.24-2.457,0.54-3.476,0.959c-1.021,0.36-1.68,0.898-1.918,1.44
	c-0.3,0.78,0.299,1.438,1.798,1.976c0.719,0.24,1.679,0.481,2.817,0.66c1.139,0.12,2.397,0.24,3.897,0.3
	c-0.123,0.42-0.241,0.839-0.302,1.261h4.017c0.062-0.422,0.18-0.841,0.241-1.261c2.518-0.118,4.555-0.418,6.233-0.898
	c1.559-0.479,2.758-1.139,3.539-1.978c-1.139-0.06-2.279-0.121-3.42-0.182c-1.136-0.058-2.277-0.118-3.475-0.18
	c-0.778,0.72-2.397,1.139-4.856,1.139c-1.919,0.062-2.815-0.118-2.697-0.537c0.061-0.182,0.301-0.3,0.778-0.422
	c0.48-0.118,1.322-0.238,2.46-0.298c2.277-0.179,4.135-0.419,5.574-0.66c1.438-0.24,2.457-0.479,3.058-0.719
	c1.318-0.54,1.978-1.139,2.157-1.739c0.181-0.717-0.241-1.318-1.318-1.856c-0.479-0.24-1.2-0.421-2.1-0.541
	C255.972,1405.103,254.895,1404.985,253.694,1404.985"/>
<path fill-rule="evenodd" clip-rule="evenodd" fill="#F39242" d="M280.011,1505.39c0,4.496,19.001,8.152,42.378,8.152
	c23.438,0,42.383-3.656,42.383-8.152v-11.089h-84.761V1505.39z"/>
<path fill-rule="evenodd" clip-rule="evenodd" fill="#FAD377" d="M322.39,1486.208c-23.377,0-42.378,3.596-42.378,8.094
	c0,4.495,19.001,8.151,42.378,8.151c23.438,0,42.379-3.656,42.379-8.151C364.769,1489.803,345.828,1486.208,322.39,1486.208"/>
<path fill-rule="evenodd" clip-rule="evenodd" fill="#F39242" d="M280.011,1489.744c0,4.496,19.001,8.152,42.378,8.152
	c23.438,0,42.383-3.656,42.383-8.152v-11.03h-84.761V1489.744z"/>
<path fill-rule="evenodd" clip-rule="evenodd" fill="#FAD377" d="M322.39,1470.563c-23.377,0-42.378,3.656-42.378,8.15
	c0,4.498,19.001,8.154,42.378,8.154c23.438,0,42.379-3.656,42.379-8.154C364.769,1474.219,345.828,1470.563,322.39,1470.563"/>
<path fill-rule="evenodd" clip-rule="evenodd" fill="#F39242" d="M280.011,1474.159c0,4.495,19.001,8.093,42.378,8.093
	c23.438,0,42.383-3.598,42.383-8.093v-11.088h-84.761V1474.159z"/>
<path fill-rule="evenodd" clip-rule="evenodd" fill="#FAD377" d="M322.39,1454.917c-23.377,0-42.378,3.656-42.378,8.152
	c0,4.498,19.001,8.154,42.378,8.154c23.438,0,42.379-3.656,42.379-8.154C364.769,1458.573,345.828,1454.917,322.39,1454.917"/>
<path fill-rule="evenodd" clip-rule="evenodd" fill="#F39242" d="M280.011,1458.514c0,4.495,19.001,8.152,42.378,8.152
	c23.438,0,42.383-3.657,42.383-8.152v-11.031h-84.761V1458.514z"/>
<path fill-rule="evenodd" clip-rule="evenodd" fill="#FAD377" d="M322.39,1439.332c-23.377,0-42.378,3.656-42.378,8.151
	c0,4.498,19.001,8.094,42.378,8.094c23.438,0,42.379-3.596,42.379-8.094C364.769,1442.988,345.828,1439.332,322.39,1439.332"/>
<path fill-rule="evenodd" clip-rule="evenodd" fill="#F39242" d="M280.011,1442.928c0,4.496,19.001,8.094,42.378,8.094
	c23.438,0,42.383-3.598,42.383-8.094v-11.09h-84.761V1442.928z"/>
<path fill-rule="evenodd" clip-rule="evenodd" fill="#FAD377" d="M322.39,1423.687c-23.377,0-42.378,3.656-42.378,8.151
	c0,4.496,19.001,8.152,42.378,8.152c23.438,0,42.379-3.656,42.379-8.152C364.769,1427.343,345.828,1423.687,322.39,1423.687"/>
<path fill-rule="evenodd" clip-rule="evenodd" fill="#F39242" d="M280.011,1427.282c0,4.496,19.001,8.152,42.378,8.152
	c23.438,0,42.383-3.656,42.383-8.152v-11.028h-84.761V1427.282z"/>
<path fill-rule="evenodd" clip-rule="evenodd" fill="#FAD377" d="M322.39,1408.101c-23.377,0-42.378,3.656-42.378,8.152
	s19.001,8.093,42.378,8.093c23.438,0,42.379-3.597,42.379-8.093S345.828,1408.101,322.39,1408.101"/>
<path fill-rule="evenodd" clip-rule="evenodd" fill="#F39242" d="M280.011,1411.637c0,4.496,19.001,8.152,42.378,8.152
	c23.438,0,42.383-3.656,42.383-8.152v-11.03h-84.761V1411.637z"/>
<path fill-rule="evenodd" clip-rule="evenodd" fill="#FAD377" d="M322.39,1392.455c-23.377,0-42.378,3.656-42.378,8.152
	c0,4.498,19.001,8.154,42.378,8.154c23.438,0,42.379-3.656,42.379-8.154C364.769,1396.111,345.828,1392.455,322.39,1392.455"/>
<path fill-rule="evenodd" clip-rule="evenodd" fill="#F28740" d="M280.011,1489.744c0,3.058,8.629,5.696,21.458,7.075v-18.105
	h-21.458V1489.744z"/>
<path fill-rule="evenodd" clip-rule="evenodd" fill="#F8C16F" d="M301.469,1471.641c-12.829,1.379-21.458,4.017-21.458,7.074
	c0,2.996,8.629,5.635,21.458,7.072V1471.641z"/>
<path fill-rule="evenodd" clip-rule="evenodd" fill="#F28740" d="M280.011,1474.159c0,2.998,8.629,5.634,21.458,7.074v-11.09
	c-12.829-1.379-21.458-4.017-21.458-7.072V1474.159z"/>
<path fill-rule="evenodd" clip-rule="evenodd" fill="#F28740" d="M280.011,1458.514c0,3.058,8.629,5.693,21.458,7.072v-11.03
	c-12.829-1.437-21.458-4.076-21.458-7.073V1458.514z"/>
<path fill-rule="evenodd" clip-rule="evenodd" fill="#F28740" d="M280.011,1442.928c0,2.997,8.629,5.635,21.458,7.073v-11.088
	c-12.829-1.379-21.458-4.02-21.458-7.075V1442.928z"/>
<path fill-rule="evenodd" clip-rule="evenodd" fill="#F28740" d="M280.011,1427.282c0,3.06,8.629,5.696,21.458,7.075v-11.031
	c-12.829-1.438-21.458-4.076-21.458-7.072V1427.282z"/>
<path fill-rule="evenodd" clip-rule="evenodd" fill="#F28740" d="M280.011,1411.637c0,3.058,8.629,5.693,21.458,7.073v-11.031
	c-12.829-1.377-21.458-4.015-21.458-7.072V1411.637z"/>
<path fill="#FDFDFD" d="M325.865,1396.591c0.122-0.419,0.301-0.779,0.48-1.199c-1.198,0.061-2.399,0.12-3.593,0.12
	c-0.183,0.42-0.363,0.778-0.542,1.141c-2.098,0.18-3.895,0.418-5.455,0.776c-1.556,0.362-2.819,0.9-3.777,1.501
	c1.019,0.058,1.98,0.18,2.999,0.298c0.958,0.061,1.976,0.181,2.934,0.24c0.843-0.599,2.281-0.898,4.139-0.958
	c1.618,0,2.338,0.118,2.22,0.538c-0.061,0.12-0.183,0.24-0.542,0.36c-0.302,0.06-1.08,0.18-2.339,0.3
	c-2.937,0.3-5.092,0.479-6.413,0.719c-1.32,0.18-2.518,0.479-3.536,0.898c-1.022,0.42-1.622,0.9-1.858,1.44
	c-0.301,0.78,0.297,1.438,1.797,1.978c0.721,0.238,1.679,0.479,2.819,0.658c1.075,0.122,2.396,0.24,3.833,0.302
	c-0.061,0.417-0.179,0.837-0.301,1.259h4.078c0.061-0.422,0.179-0.842,0.24-1.259c2.518-0.12,4.555-0.42,6.172-0.9
	c1.622-0.479,2.819-1.139,3.597-1.976c-1.137-0.062-2.277-0.123-3.475-0.184c-1.141-0.058-2.277-0.118-3.418-0.18
	c-0.778,0.722-2.396,1.139-4.856,1.139c-1.919,0.062-2.876-0.118-2.754-0.479c0.057-0.24,0.358-0.358,0.835-0.48
	c0.481-0.118,1.32-0.236,2.461-0.298c2.277-0.179,4.074-0.419,5.512-0.66c1.438-0.238,2.518-0.479,3.121-0.719
	c1.255-0.54,1.976-1.139,2.155-1.739c0.183-0.718-0.24-1.318-1.32-1.856c-0.538-0.24-1.198-0.421-2.098-0.539
	C328.146,1396.709,327.067,1396.591,325.865,1396.591"/>
<path fill-rule="evenodd" clip-rule="evenodd" fill="#F39242" d="M414.823,1532.605c0,4.494,19.006,8.15,42.383,8.15
	c23.435,0,42.379-3.656,42.379-8.15v-11.03h-84.762V1532.605z"/>
<path fill-rule="evenodd" clip-rule="evenodd" fill="#FAD377" d="M457.206,1513.422c-23.381,0-42.383,3.657-42.383,8.152
	c0,4.496,19.002,8.154,42.383,8.154c23.438,0,42.379-3.658,42.379-8.154C499.584,1517.08,480.644,1513.422,457.206,1513.422"/>
<path fill-rule="evenodd" clip-rule="evenodd" fill="#F39242" d="M414.823,1517.02c0,4.494,19.006,8.093,42.383,8.093
	c23.435,0,42.379-3.599,42.379-8.093v-11.09h-84.762V1517.02z"/>
<path fill-rule="evenodd" clip-rule="evenodd" fill="#FAD377" d="M457.206,1497.778c-23.381,0-42.383,3.657-42.383,8.15
	c0,4.498,19.002,8.154,42.383,8.154c23.438,0,42.379-3.656,42.379-8.154C499.584,1501.435,480.644,1497.778,457.206,1497.778"/>
<path fill-rule="evenodd" clip-rule="evenodd" fill="#F39242" d="M414.823,1501.374c0,4.496,19.006,8.152,42.383,8.152
	c23.435,0,42.379-3.656,42.379-8.152v-11.03h-84.762V1501.374z"/>
<path fill-rule="evenodd" clip-rule="evenodd" fill="#FAD377" d="M457.206,1482.191c-23.381,0-42.383,3.658-42.383,8.152
	c0,4.497,19.002,8.093,42.383,8.093c23.438,0,42.379-3.596,42.379-8.093C499.584,1485.849,480.644,1482.191,457.206,1482.191"/>
<path fill-rule="evenodd" clip-rule="evenodd" fill="#F39242" d="M414.823,1485.788c0,4.438,19.006,8.094,42.383,8.094
	c23.435,0,42.379-3.656,42.379-8.094v-11.089h-84.762V1485.788z"/>
<path fill-rule="evenodd" clip-rule="evenodd" fill="#FAD377" d="M457.206,1466.546c-23.381,0-42.383,3.656-42.383,8.152
	c0,4.497,19.002,8.154,42.383,8.154c23.438,0,42.379-3.657,42.379-8.154C499.584,1470.203,480.644,1466.546,457.206,1466.546"/>
<path fill-rule="evenodd" clip-rule="evenodd" fill="#F28740" d="M414.823,1532.605c0,3.115,8.992,5.816,22.18,7.191v-11.088
	c-13.188-1.379-22.18-4.076-22.18-7.134V1532.605z"/>
<path fill-rule="evenodd" clip-rule="evenodd" fill="#F28740" d="M414.823,1517.02c0,3.058,8.992,5.755,22.18,7.134v-11.03
	c-13.188-1.38-22.18-4.076-22.18-7.193V1517.02z"/>
<path fill-rule="evenodd" clip-rule="evenodd" fill="#F28740" d="M414.823,1501.374c0,3.116,8.992,5.755,22.18,7.134v-11.031
	c-13.188-1.379-22.18-4.075-22.18-7.133V1501.374z"/>
<path fill-rule="evenodd" clip-rule="evenodd" fill="#F28740" d="M414.823,1485.788c0,3.058,8.992,5.755,22.18,7.134v-11.09
	c-13.188-1.379-22.18-4.017-22.18-7.133V1485.788z"/>
<path fill="#FDFDFD" d="M461.761,1469.243c0.118-0.417,0.301-0.78,0.48-1.197c-1.202,0.059-2.399,0.059-3.597,0.12
	c-0.184,0.358-0.363,0.778-0.542,1.139c-2.098,0.118-3.895,0.42-5.451,0.778c-1.561,0.36-2.819,0.841-3.777,1.499
	c1.019,0.06,1.976,0.18,2.995,0.24c0.961,0.118,1.98,0.18,2.938,0.298c0.9-0.597,2.281-0.898,4.196-0.958
	c1.561,0,2.338,0.12,2.159,0.479c0,0.181-0.183,0.299-0.542,0.36c-0.297,0.118-1.075,0.24-2.338,0.358
	c-2.933,0.24-5.093,0.48-6.413,0.66c-1.32,0.181-2.518,0.54-3.536,0.9c-1.019,0.419-1.618,0.898-1.858,1.497
	c-0.302,0.78,0.301,1.44,1.797,1.978c0.721,0.241,1.678,0.481,2.819,0.66c1.08,0.12,2.396,0.238,3.895,0.3
	c-0.118,0.42-0.236,0.839-0.297,1.261h4.013c0.061-0.422,0.183-0.841,0.24-1.261c2.518-0.118,4.555-0.42,6.176-0.898
	c1.617-0.48,2.815-1.2,3.597-2.039c-1.141-0.06-2.277-0.06-3.418-0.12c-1.137-0.06-2.338-0.118-3.475-0.18
	c-0.782,0.72-2.4,1.139-4.856,1.139c-1.919,0-2.819-0.179-2.697-0.537c0.061-0.182,0.301-0.302,0.778-0.422
	c0.481-0.118,1.32-0.238,2.457-0.298c2.282-0.24,4.14-0.419,5.578-0.66c1.377-0.24,2.457-0.48,3.056-0.719
	c1.32-0.542,1.976-1.139,2.159-1.799c0.179-0.719-0.24-1.319-1.32-1.799c-0.481-0.238-1.198-0.421-2.098-0.539
	C464.038,1469.363,462.958,1469.243,461.761,1469.243"/>
<path fill-rule="evenodd" clip-rule="evenodd" fill="#F39242" d="M152.268,1487.046c0,4.496,18.945,8.094,42.381,8.094
	c23.379,0,42.381-3.598,42.381-8.094v-11.089h-84.762V1487.046z"/>
<path fill-rule="evenodd" clip-rule="evenodd" fill="#F17E3E" d="M152.268,1487.046c0,2.877,7.912,5.395,19.782,6.835v-17.924
	h-19.782V1487.046z"/>
<path fill-rule="evenodd" clip-rule="evenodd" fill="#FAD377" d="M194.648,1467.805c-23.436,0-42.381,3.656-42.381,8.152
	c0,4.497,18.945,8.154,42.381,8.154c23.379,0,42.381-3.657,42.381-8.154C237.029,1471.461,218.028,1467.805,194.648,1467.805"/>
<path fill-rule="evenodd" clip-rule="evenodd" fill="#F39242" d="M152.268,1471.402c0,4.494,18.945,8.15,42.381,8.15
	c23.379,0,42.381-3.656,42.381-8.15v-11.03h-84.762V1471.402z"/>
<path fill-rule="evenodd" clip-rule="evenodd" fill="#F17E3E" d="M152.268,1471.402c0,2.877,7.912,5.454,19.782,6.894v-17.924
	h-19.782V1471.402z"/>
<path fill-rule="evenodd" clip-rule="evenodd" fill="#FAD377" d="M194.648,1452.219c-23.436,0-42.381,3.657-42.381,8.152
	c0,4.498,18.945,8.094,42.381,8.094c23.379,0,42.381-3.596,42.381-8.094C237.029,1455.876,218.028,1452.219,194.648,1452.219"/>
<path fill-rule="evenodd" clip-rule="evenodd" fill="#F39242" d="M152.268,1455.755c0,4.496,18.945,8.152,42.381,8.152
	c23.379,0,42.381-3.656,42.381-8.152v-11.03h-84.762V1455.755z"/>
<path fill-rule="evenodd" clip-rule="evenodd" fill="#F17E3E" d="M152.268,1455.755c0,2.938,7.912,5.456,19.782,6.896v-17.926
	h-19.782V1455.755z"/>
<path fill-rule="evenodd" clip-rule="evenodd" fill="#FAD377" d="M194.648,1436.575c-23.436,0-42.381,3.657-42.381,8.15
	c0,4.498,18.945,8.154,42.381,8.154c23.379,0,42.381-3.656,42.381-8.154C237.029,1440.232,218.028,1436.575,194.648,1436.575"/>
<path fill="#FDFDFD" d="M194.889,1439.93c0.179-0.358,0.358-0.78,0.54-1.139c-1.198,0-2.458,0.061-3.656,0.12
	c-0.182,0.36-0.361,0.719-0.479,1.079c-2.098,0.18-3.958,0.42-5.455,0.778c-1.558,0.42-2.819,0.898-3.777,1.499
	c1.019,0.12,1.978,0.18,2.936,0.3c1.021,0.06,1.98,0.182,2.997,0.24c0.843-0.54,2.218-0.9,4.137-0.9
	c1.62-0.057,2.338,0.122,2.218,0.48c-0.059,0.121-0.24,0.239-0.538,0.361c-0.302,0.059-1.082,0.179-2.339,0.297
	c-2.937,0.302-5.097,0.542-6.415,0.722c-1.318,0.179-2.518,0.479-3.536,0.898c-1.021,0.419-1.679,0.897-1.858,1.438
	c-0.36,0.78,0.238,1.44,1.738,1.979c0.778,0.301,1.74,0.48,2.817,0.66c1.139,0.181,2.459,0.299,3.897,0.299
	c-0.122,0.42-0.181,0.84-0.301,1.261h4.078c0.059-0.421,0.12-0.841,0.238-1.261c2.518-0.118,4.557-0.419,6.174-0.898
	c1.62-0.48,2.819-1.139,3.538-1.978c-1.139-0.062-2.279-0.12-3.416-0.182c-1.141-0.059-2.281-0.118-3.418-0.179
	c-0.778,0.78-2.4,1.139-4.856,1.139c-1.98,0.061-2.876-0.118-2.758-0.479c0.062-0.179,0.361-0.36,0.839-0.48
	c0.481-0.118,1.261-0.179,2.457-0.297c2.221-0.18,4.078-0.42,5.517-0.602c1.438-0.24,2.457-0.537,3.119-0.778
	c1.257-0.539,1.978-1.139,2.157-1.739c0.179-0.717-0.24-1.318-1.32-1.799c-0.538-0.24-1.198-0.479-2.098-0.599
	C197.167,1440.05,196.146,1439.991,194.889,1439.93"/>
<polygon fill-rule="evenodd" clip-rule="evenodd" fill="#FDFDFD" points="236.73,1328.674 235.29,1343.18 227.199,1344.8 
	235.29,1346.417 236.73,1360.925 238.227,1346.417 246.021,1344.8 238.227,1343.18 "/>
<path fill-rule="evenodd" clip-rule="evenodd" fill="#F39242" d="M240.985,1518.159c0,4.494,18.944,8.152,42.379,8.152
	c23.381,0,42.383-3.658,42.383-8.152v-11.03h-84.762V1518.159z"/>
<path fill-rule="evenodd" clip-rule="evenodd" fill="#FAD377" d="M283.368,1498.976c-23.438,0-42.383,3.656-42.383,8.152
	c0,4.497,18.944,8.154,42.383,8.154c23.377,0,42.379-3.657,42.379-8.154C325.747,1502.632,306.745,1498.976,283.368,1498.976"/>
<path fill-rule="evenodd" clip-rule="evenodd" fill="#F39242" d="M240.985,1502.574c0,4.493,18.944,8.149,42.379,8.149
	c23.381,0,42.383-3.656,42.383-8.149v-11.09h-84.762V1502.574z"/>
<path fill-rule="evenodd" clip-rule="evenodd" fill="#FAD377" d="M283.368,1483.39c-23.438,0-42.383,3.596-42.383,8.094
	c0,4.495,18.944,8.152,42.383,8.152c23.377,0,42.379-3.657,42.379-8.152C325.747,1486.986,306.745,1483.39,283.368,1483.39"/>
<path fill-rule="evenodd" clip-rule="evenodd" fill="#F39242" d="M240.985,1486.926c0,4.496,18.944,8.152,42.379,8.152
	c23.381,0,42.383-3.656,42.383-8.152v-11.03h-84.762V1486.926z"/>
<path fill-rule="evenodd" clip-rule="evenodd" fill="#FAD377" d="M283.368,1467.746c-23.438,0-42.383,3.656-42.383,8.15
	c0,4.498,18.944,8.154,42.383,8.154c23.377,0,42.379-3.656,42.379-8.154C325.747,1471.402,306.745,1467.746,283.368,1467.746"/>
<path fill-rule="evenodd" clip-rule="evenodd" fill="#F39242" d="M240.985,1471.341c0,4.496,18.944,8.093,42.379,8.093
	c23.381,0,42.383-3.597,42.383-8.093v-11.088h-84.762V1471.341z"/>
<path fill-rule="evenodd" clip-rule="evenodd" fill="#FAD377" d="M283.368,1452.099c-23.438,0-42.383,3.656-42.383,8.152
	c0,4.498,18.944,8.154,42.383,8.154c23.377,0,42.379-3.656,42.379-8.154C325.747,1455.755,306.745,1452.099,283.368,1452.099"/>
<path fill-rule="evenodd" clip-rule="evenodd" fill="#F28740" d="M240.985,1518.159c0,3.116,8.933,5.815,22.12,7.19v-11.087
	c-13.188-1.38-22.12-4.076-22.12-7.134V1518.159z"/>
<path fill-rule="evenodd" clip-rule="evenodd" fill="#F28740" d="M240.985,1502.574c0,3.057,8.933,5.754,22.12,7.133v-11.03
	c-13.188-1.379-22.12-4.076-22.12-7.192V1502.574z"/>
<path fill-rule="evenodd" clip-rule="evenodd" fill="#F28740" d="M240.985,1486.926c0,3.117,8.933,5.816,22.12,7.193v-11.09
	c-13.188-1.377-22.12-4.074-22.12-7.134V1486.926z"/>
<path fill-rule="evenodd" clip-rule="evenodd" fill="#F28740" d="M240.985,1471.341c0,3.058,8.933,5.755,22.12,7.134v-11.03
	c-13.188-1.378-22.12-4.074-22.12-7.191V1471.341z"/>
<path fill="#FDFDFD" d="M287.862,1454.796c0.179-0.418,0.358-0.78,0.481-1.198c-1.202,0.06-2.4,0.12-3.598,0.12
	c-0.179,0.42-0.358,0.778-0.538,1.14c-2.102,0.179-3.899,0.419-5.394,0.777c-1.561,0.361-2.819,0.898-3.781,1.5
	c0.961,0.061,1.98,0.179,2.937,0.299c1.023,0.06,1.98,0.182,2.938,0.24c0.9-0.599,2.277-0.9,4.196-0.959
	c1.622,0,2.339,0.12,2.216,0.54c-0.057,0.12-0.236,0.238-0.538,0.299c-0.297,0.12-1.08,0.24-2.396,0.358
	c-2.938,0.302-5.036,0.481-6.355,0.66c-1.377,0.24-2.518,0.54-3.537,0.96c-1.019,0.36-1.678,0.841-1.919,1.438
	c-0.301,0.78,0.302,1.44,1.797,1.979c0.782,0.24,1.74,0.48,2.819,0.66c1.141,0.12,2.457,0.24,3.899,0.299
	c-0.122,0.42-0.184,0.84-0.302,1.262h4.013c0.122-0.422,0.183-0.842,0.301-1.262c2.457-0.118,4.555-0.419,6.177-0.898
	c1.617-0.48,2.758-1.139,3.536-1.978c-1.137-0.062-2.277-0.12-3.418-0.182c-1.141-0.059-2.278-0.118-3.418-0.179
	c-0.778,0.719-2.457,1.139-4.913,1.139c-1.919,0.061-2.819-0.118-2.697-0.538c0.061-0.181,0.301-0.302,0.778-0.422
	c0.48-0.118,1.32-0.238,2.46-0.297c2.277-0.18,4.135-0.42,5.573-0.66c1.438-0.24,2.457-0.479,3.117-0.719
	c1.259-0.54,1.976-1.139,2.159-1.74c0.179-0.719-0.302-1.317-1.32-1.857c-0.542-0.238-1.259-0.42-2.098-0.54
	C290.139,1454.917,289.121,1454.796,287.862,1454.796"/>
<path fill-rule="evenodd" clip-rule="evenodd" fill="#F39242" d="M181.281,1530.687c0,4.495,19.004,8.152,42.381,8.152
	c23.438,0,42.381-3.657,42.381-8.152v-11.09h-84.762V1530.687z"/>
<path fill-rule="evenodd" clip-rule="evenodd" fill="#FAD377" d="M223.662,1511.503c-23.379,0-42.378,3.598-42.378,8.094
	c0,4.495,19,8.152,42.378,8.152c23.438,0,42.379-3.657,42.379-8.152C266.041,1515.101,247.101,1511.503,223.662,1511.503"/>
<path fill-rule="evenodd" clip-rule="evenodd" fill="#F39242" d="M181.281,1515.042c0,4.493,19.004,8.149,42.381,8.149
	c23.438,0,42.381-3.656,42.381-8.149v-11.031h-84.762V1515.042z"/>
<path fill-rule="evenodd" clip-rule="evenodd" fill="#FAD377" d="M223.662,1495.859c-23.379,0-42.378,3.657-42.378,8.152
	c0,4.496,19,8.152,42.378,8.152c23.438,0,42.379-3.656,42.379-8.152C266.041,1499.516,247.101,1495.859,223.662,1495.859"/>
<path fill-rule="evenodd" clip-rule="evenodd" fill="#F17E3E" d="M181.281,1530.687c0,3.298,10.371,6.174,25.237,7.431v-11.026
	c-14.866-1.32-25.237-4.138-25.237-7.494V1530.687z"/>
<path fill-rule="evenodd" clip-rule="evenodd" fill="#F17E3E" d="M181.281,1515.042c0,3.354,10.371,6.174,25.237,7.431v-11.028
	c-14.866-1.259-25.237-4.136-25.237-7.434V1515.042z"/>
<path fill="#FDFDFD" d="M227.917,1498.256c0.121-0.419,0.3-0.78,0.479-1.199c-1.198,0.061-2.397,0.122-3.593,0.122
	c-0.184,0.418-0.363,0.776-0.542,1.139c-2.098,0.18-3.895,0.418-5.455,0.778c-1.557,0.36-2.817,0.898-3.777,1.499
	c1.019,0.118,1.98,0.18,2.999,0.298c0.958,0.061,1.978,0.181,2.936,0.24c0.902-0.599,2.279-0.898,4.198-0.958
	c1.556,0,2.338,0.18,2.159,0.538c0,0.122-0.183,0.24-0.542,0.36c-0.301,0.06-1.08,0.18-2.338,0.3
	c-2.938,0.3-5.093,0.479-6.413,0.719c-1.32,0.18-2.518,0.481-3.536,0.898c-1.021,0.42-1.62,0.9-1.858,1.44
	c-0.302,0.78,0.299,1.44,1.797,1.978c0.721,0.238,1.678,0.479,2.819,0.658c1.078,0.182,2.396,0.24,3.895,0.302
	c-0.12,0.42-0.24,0.837-0.299,1.259h4.015c0.062-0.422,0.182-0.839,0.241-1.259c2.518-0.12,4.555-0.42,6.174-0.9
	c1.619-0.479,2.817-1.139,3.597-1.977c-1.139-0.061-2.277-0.122-3.418-0.181c-1.139-0.06-2.336-0.12-3.475-0.18
	c-0.78,0.72-2.398,1.139-4.856,1.139c-1.919,0.06-2.817-0.12-2.697-0.48c0.059-0.18,0.299-0.358,0.778-0.479
	c0.479-0.12,1.32-0.18,2.458-0.3c2.277-0.179,4.138-0.42,5.574-0.658c1.379-0.183,2.457-0.48,3.06-0.721
	c1.316-0.54,1.976-1.139,2.155-1.739c0.183-0.718-0.241-1.318-1.318-1.856c-0.479-0.24-1.2-0.421-2.098-0.539
	C230.197,1498.375,229.118,1498.318,227.917,1498.256"/>
<path fill-rule="evenodd" clip-rule="evenodd" fill="#F39242" d="M322.21,1553.884c0,4.496,18.94,8.152,42.379,8.152
	c23.381,0,42.383-3.656,42.383-8.152v-11.03H322.21V1553.884z"/>
<path fill-rule="evenodd" clip-rule="evenodd" fill="#FAD377" d="M364.589,1534.704c-23.434,0-42.379,3.656-42.379,8.15
	c0,4.498,18.945,8.154,42.379,8.154c23.381,0,42.383-3.656,42.383-8.154C406.972,1538.36,387.971,1534.704,364.589,1534.704"/>
<path fill-rule="evenodd" clip-rule="evenodd" fill="#F39242" d="M322.21,1538.299c0,4.495,18.94,8.152,42.379,8.152
	c23.381,0,42.383-3.657,42.383-8.152v-11.088H322.21V1538.299z"/>
<path fill-rule="evenodd" clip-rule="evenodd" fill="#FAD377" d="M364.589,1519.119c-23.434,0-42.379,3.595-42.379,8.093
	c0,4.493,18.945,8.15,42.379,8.15c23.381,0,42.383-3.657,42.383-8.15C406.972,1522.713,387.971,1519.119,364.589,1519.119"/>
<path fill-rule="evenodd" clip-rule="evenodd" fill="#F39242" d="M322.21,1522.655c0,4.493,18.94,8.152,42.379,8.152
	c23.381,0,42.383-3.659,42.383-8.152v-11.031H322.21V1522.655z"/>
<path fill-rule="evenodd" clip-rule="evenodd" fill="#FAD377" d="M364.589,1503.471c-23.434,0-42.379,3.657-42.379,8.152
	c0,4.498,18.945,8.154,42.379,8.154c23.381,0,42.383-3.656,42.383-8.154C406.972,1507.128,387.971,1503.471,364.589,1503.471"/>
<path fill-rule="evenodd" clip-rule="evenodd" fill="#F39242" d="M322.21,1507.069c0,4.494,18.94,8.094,42.379,8.094
	c23.381,0,42.383-3.6,42.383-8.094v-11.09H322.21V1507.069z"/>
<path fill-rule="evenodd" clip-rule="evenodd" fill="#FAD377" d="M364.589,1487.827c-23.434,0-42.379,3.657-42.379,8.15
	c0,4.498,18.945,8.154,42.379,8.154c23.381,0,42.383-3.656,42.383-8.154C406.972,1491.484,387.971,1487.827,364.589,1487.827"/>
<path fill-rule="evenodd" clip-rule="evenodd" fill="#F39242" d="M322.21,1491.422c0,4.496,18.94,8.152,42.379,8.152
	c23.381,0,42.383-3.656,42.383-8.152v-11.03H322.21V1491.422z"/>
<path fill-rule="evenodd" clip-rule="evenodd" fill="#FAD377" d="M364.589,1472.242c-23.434,0-42.379,3.656-42.379,8.15
	c0,4.498,18.945,8.095,42.379,8.095c23.381,0,42.383-3.597,42.383-8.095C406.972,1475.898,387.971,1472.242,364.589,1472.242"/>
<path fill-rule="evenodd" clip-rule="evenodd" fill="#F39242" d="M322.21,1475.837c0,4.495,18.94,8.093,42.379,8.093
	c23.381,0,42.383-3.598,42.383-8.093v-11.088H322.21V1475.837z"/>
<path fill-rule="evenodd" clip-rule="evenodd" fill="#FAD377" d="M364.589,1456.595c-23.434,0-42.379,3.656-42.379,8.152
	c0,4.498,18.945,8.154,42.379,8.154c23.381,0,42.383-3.656,42.383-8.154C406.972,1460.251,387.971,1456.595,364.589,1456.595"/>
<path fill-rule="evenodd" clip-rule="evenodd" fill="#F28740" d="M322.21,1553.884c0,3.416,10.609,6.295,25.838,7.492v-11.03
	c-15.229-1.257-25.838-4.134-25.838-7.492V1553.884z"/>
<path fill-rule="evenodd" clip-rule="evenodd" fill="#F28740" d="M322.21,1538.299c0,3.356,10.609,6.235,25.838,7.492v-11.088
	c-15.229-1.2-25.838-4.076-25.838-7.492V1538.299z"/>
<path fill-rule="evenodd" clip-rule="evenodd" fill="#F28740" d="M322.21,1522.655c0,3.354,10.609,6.292,25.838,7.492v-11.028
	c-15.229-1.26-25.838-4.138-25.838-7.495V1522.655z"/>
<path fill-rule="evenodd" clip-rule="evenodd" fill="#F28740" d="M322.21,1507.069c0,3.355,10.609,6.233,25.838,7.492v-11.09
	c-15.229-1.197-25.838-4.135-25.838-7.492V1507.069z"/>
<path fill-rule="evenodd" clip-rule="evenodd" fill="#F28740" d="M322.21,1491.422c0,3.357,10.609,6.295,25.838,7.494v-11.03
	c-15.229-1.259-25.838-4.136-25.838-7.494V1491.422z"/>
<path fill-rule="evenodd" clip-rule="evenodd" fill="#F28740" d="M322.21,1475.837c0,3.356,10.609,6.235,25.838,7.492v-11.088
	c-15.229-1.2-25.838-4.138-25.838-7.492V1475.837z"/>
<path fill="#FDFDFD" d="M368.786,1459.292c0.179-0.418,0.301-0.78,0.481-1.198c-1.198,0.06-2.4,0.06-3.598,0.12
	c-0.179,0.358-0.358,0.778-0.538,1.139c-2.098,0.118-3.899,0.42-5.456,0.778c-1.499,0.36-2.758,0.841-3.715,1.499
	c0.958,0.06,1.976,0.18,2.933,0.24c0.962,0.118,1.98,0.18,2.938,0.3c0.9-0.599,2.277-0.9,4.196-0.957
	c1.622,0,2.339,0.118,2.221,0.477c-0.062,0.181-0.241,0.299-0.538,0.36c-0.301,0.12-1.141,0.24-2.399,0.358
	c-2.938,0.24-5.036,0.48-6.417,0.66c-1.316,0.182-2.457,0.54-3.475,0.9c-1.019,0.42-1.678,0.9-1.919,1.497
	c-0.297,0.78,0.302,1.44,1.801,1.979c0.778,0.24,1.679,0.48,2.815,0.659c1.141,0.12,2.399,0.241,3.899,0.3
	c-0.123,0.42-0.241,0.839-0.302,1.261h4.017c0.061-0.422,0.179-0.841,0.241-1.261c2.518-0.118,4.616-0.42,6.233-0.898
	c1.557-0.48,2.758-1.199,3.537-2.039c-1.137-0.059-2.277-0.059-3.418-0.12c-1.136-0.059-2.277-0.118-3.475-0.18
	c-0.778,0.72-2.399,1.14-4.856,1.14c-1.919,0-2.815-0.18-2.697-0.538c0.061-0.182,0.301-0.302,0.778-0.422
	c0.481-0.118,1.32-0.238,2.461-0.298c2.277-0.24,4.135-0.419,5.573-0.659c1.438-0.241,2.457-0.479,3.117-0.72
	c1.259-0.539,1.98-1.139,2.098-1.799c0.18-0.657-0.24-1.259-1.259-1.798c-0.538-0.239-1.259-0.42-2.098-0.54
	C371.063,1459.413,369.987,1459.292,368.786,1459.292"/>
<polygon fill-rule="evenodd" clip-rule="evenodd" fill="#FDFDFD" points="372.085,1293.249 370.644,1307.754 362.552,1309.372 
	370.644,1310.991 372.085,1325.499 373.524,1310.991 381.375,1309.372 373.524,1307.754 "/>
<polygon fill-rule="evenodd" clip-rule="evenodd" fill="#FDFDFD" points="448.752,1396.831 447.314,1411.335 439.223,1412.956 
	447.314,1414.575 448.752,1429.083 450.19,1414.575 458.045,1412.956 450.19,1411.335 "/>
<polygon fill-rule="evenodd" clip-rule="evenodd" fill="#FDFDFD" points="351.462,1376.03 349.963,1390.536 341.933,1392.155 
	349.963,1393.773 351.462,1408.281 352.901,1393.773 360.756,1392.155 352.901,1390.536 "/>
<polygon fill-rule="evenodd" clip-rule="evenodd" fill="#FDFDFD" points="170.611,1444.907 169.114,1459.471 161.08,1461.03 
	169.114,1462.649 170.611,1477.216 172.052,1462.649 179.902,1461.03 172.052,1459.471 "/>
<polygon fill-rule="evenodd" clip-rule="evenodd" fill="#00558A" points="1384.25,375.47 1615.537,343.78 1650.9,602.219 
	1419.623,633.821 "/>
<path fill-rule="evenodd" clip-rule="evenodd" fill="#314A51" d="M1455.42,400.232c5.594-0.788,10.661,3.072,11.372,8.569
	c0.784,5.595-3.074,10.666-8.582,11.462c-5.586,0.7-10.653-3.162-11.447-8.668C1446.062,406.01,1449.919,400.94,1455.42,400.232"/>
<path fill-rule="evenodd" clip-rule="evenodd" fill="#314A51" d="M1556.267,386.439c5.597-0.787,10.664,3.072,11.372,8.569
	c0.787,5.597-3.07,10.666-8.581,11.462c-5.584,0.7-10.65-3.163-11.451-8.667C1546.912,392.218,1550.77,387.149,1556.267,386.439"/>
<path fill="#FDFDFD" d="M1451.955,410.407c-0.053-2.669,1.982-4.927,4.65-4.979c2.681-0.138,4.938,1.891,4.99,4.561
	c0.204,3.666,0.42,7.241,0.835,10.664c2.656,28.273,10.643,47.118,20.979,58.592c9.855,10.975,21.887,15.269,33.406,14.71
	c0.624-0.02,1.337-0.028,2.146-0.112c9.521-0.964,18.602-5.087,25.524-11.316c6.721-5.987,11.347-13.899,12.593-22.551
	c3.913-29.041-4.123-62.364-4.112-62.454c-0.588-2.641,1.034-5.209,3.592-5.81c2.549-0.598,5.207,1.035,5.804,3.59
	c-0.01,0.086,8.453,35.148,4.256,65.932c-1.523,11.107-7.357,21.011-15.664,28.509c-8.409,7.571-19.449,12.537-31.128,13.701
	c-0.81,0.085-1.702,0.159-2.588,0.149c-14.203,0.699-28.972-4.526-41.047-17.885c-11.586-12.945-20.438-33.574-23.373-64.101
	C1452.418,418.096,1452.132,414.333,1451.955,410.407"/>
<polygon fill-rule="evenodd" clip-rule="evenodd" fill="#FFA800" points="1535.067,495.132 1743.458,564.396 1666.027,797.085 
	1457.725,727.833 "/>
<path fill-rule="evenodd" clip-rule="evenodd" fill="#314A51" d="M1584.949,545.545c4.954,1.717,7.633,7.082,6.005,12.046
	c-1.632,4.966-7.083,7.634-12.047,6.009c-4.97-1.63-7.646-6.995-6.007-12.051C1574.528,546.582,1579.896,543.905,1584.949,545.545"
	/>
<path fill-rule="evenodd" clip-rule="evenodd" fill="#314A51" d="M1675.752,575.728c4.953,1.717,7.632,7.083,6.004,12.047
	c-1.631,4.967-6.995,7.644-12.045,6.008c-4.971-1.629-7.646-6.995-6.016-11.961C1665.418,576.776,1670.782,574.099,1675.752,575.728
	"/>
<path fill="#FDFDFD" d="M1577.738,552.72c1.061-2.279,3.662-3.314,6.041-2.334c2.276,1.058,3.305,3.749,2.333,6.036
	c-1.423,3.125-2.662,6.269-3.81,9.337c-9.488,24.945-10.506,44.101-6.589,58.133c3.723,13.384,12.164,21.981,22.063,26.297
	c0.594,0.247,1.188,0.491,1.871,0.748c8.428,3.173,17.813,3.44,26.257,1.022c8.161-2.273,15.354-6.965,19.95-13.813
	c15.366-22.768,22.404-54.298,22.503-54.377c0.541-2.423,2.94-4.017,5.444-3.378c2.422,0.544,3.93,2.933,3.378,5.445
	c-0.01,0.088-7.401,33.175-23.728,57.347c-5.963,8.737-14.989,14.729-25.081,17.581c-10.269,2.835-21.602,2.527-31.911-1.305
	c-0.759-0.356-1.529-0.619-2.286-0.97c-12.279-5.301-22.623-15.886-27.178-32.119c-4.429-15.778-3.371-36.885,6.783-63.797
	C1574.939,559.418,1576.292,556.107,1577.738,552.72"/>
</svg>
